<svg xmlns="http://www.w3.org/2000/svg" xmlns:xlink="http://www.w3.org/1999/xlink" viewBox="0 0 104.167 83.167" fill="#fff" fill-rule="evenodd" stroke="#000" stroke-linecap="round" stroke-linejoin="round"><use xlink:href="#A" x="2.083" y="2.083"/><symbol id="A" overflow="visible"><g stroke="none" fill-rule="nonzero"><path d="M96.155 78.464H4.269C2.407 78.455.899 76.948.89 75.085v-20.85c.009-1.862 1.517-3.37 3.379-3.379h91.885c1.862.009 3.37 1.517 3.379 3.379v20.846c-.009 1.862-1.517 3.37-3.379 3.379z" fill="#d0cfce"/><path d="M10.431 64.879a4.02 4.02 0 0 1 4.029-4.029 4.02 4.02 0 0 1 0 8.058 4.02 4.02 0 0 1-4.029-4.029z" fill="#92d3f5"/></g><path d="M50.018 0v39.313m12.823-12.754L50.05 39.35M37.133 26.558L49.925 39.35m43.45 39.464H6.25A6.27 6.27 0 0 1 0 72.564V56.781a6.27 6.27 0 0 1 6.25-6.25h87.125a6.27 6.27 0 0 1 6.25 6.25v15.783a6.27 6.27 0 0 1-6.25 6.25z" stroke-miterlimit="10" fill="none" stroke-width="4.167"/><path d="M10.294 64.88a4.16 4.16 0 0 1 4.167-4.167 4.16 4.16 0 1 1 0 8.333 4.16 4.16 0 0 1-4.167-4.167z" fill="none" stroke-width="4.167"/></symbol></svg>